<?xml version="1.0" ?><!DOCTYPE svg  PUBLIC '-//W3C//DTD SVG 1.1//EN'  'http://www.w3.org/Graphics/SVG/1.1/DTD/svg11.dtd'><svg enable-background="new 0 0 24 24" height="24px" id="Layer_1" version="1.1" viewBox="0 0 24 24" width="24px" xml:space="preserve" xmlns="http://www.w3.org/2000/svg" xmlns:xlink="http://www.w3.org/1999/xlink"><g><rect height="1.4" width="2.2" x="10.9" y="8.9"/><path d="M19.7,0.5H4.3c-2.1,0-3.8,1.7-3.8,3.8v15.4c0,2.1,1.7,3.8,3.8,3.8h15.4c2.1,0,3.8-1.7,3.8-3.8V4.3   C23.5,2.2,21.8,0.5,19.7,0.5z M17.2,13.8c0,0.3-0.2,0.5-0.5,0.5h-5.8v4.4c0,0.3-0.2,0.5-0.5,0.5H7.3c-0.3,0-0.5-0.2-0.5-0.5V5.3   c0-0.3,0.2-0.5,0.5-0.5h9.3c0.3,0,0.5,0.2,0.5,0.5V13.8z"/></g></svg>